<?xml version="1.0" encoding="iso-8859-1"?>
<!-- Uploaded to: SVG Repo, www.svgrepo.com, Generator: SVG Repo Mixer Tools -->
<svg height="800px" width="800px" version="1.1" id="Layer_1" xmlns="http://www.w3.org/2000/svg" xmlns:xlink="http://www.w3.org/1999/xlink" 
	 viewBox="0 0 512.001 512.001" xml:space="preserve">
<polygon style="fill:#1685CF;" points="311.85,501.801 16.029,287.171 200.15,153.584 495.971,368.214 "/>
<polygon style="fill:#45B5F5;" points="311.85,429.973 16.029,215.343 200.15,81.756 495.971,296.386 "/>
<polygon style="fill:#9CDCFF;" points="311.85,358.417 16.029,143.787 200.15,10.2 495.971,224.83 "/>
<g>
	<path style="fill:#3B404F;" d="M506.17,296.386c0-3.268-1.566-6.337-4.209-8.255l-37.934-27.523l37.934-27.523
		c2.645-1.918,4.209-4.988,4.209-8.255c0-3.268-1.566-6.337-4.209-8.255L206.139,1.944c-3.573-2.593-8.406-2.593-11.979,0
		L10.039,135.532c-2.645,1.918-4.209,4.988-4.209,8.255c0,3.268,1.566,6.337,4.209,8.255l37.934,27.523l-37.934,27.524
		c-2.645,1.918-4.209,4.988-4.209,8.255c0,3.267,1.566,6.337,4.209,8.255l38.122,27.659l-38.122,27.658
		c-2.645,1.918-4.209,4.988-4.209,8.255c0,3.268,1.566,6.337,4.209,8.255l295.821,214.63c1.786,1.296,3.888,1.944,5.99,1.944
		c2.102,0,4.203-0.648,5.99-1.944l184.121-133.587c2.645-1.918,4.209-4.988,4.209-8.255c0-3.268-1.566-6.337-4.209-8.255
		l-38.122-27.658l38.121-27.658C504.606,302.723,506.17,299.654,506.17,296.386z M200.15,22.801L478.604,224.83L311.85,345.816
		L33.397,143.787L200.15,22.801z M478.604,368.214L311.85,489.2L33.397,287.171l32.132-23.312L305.861,438.23
		c1.786,1.296,3.888,1.944,5.99,1.944c2.102,0,4.203-0.648,5.99-1.944l128.632-93.328L478.604,368.214z M311.85,417.372
		L33.397,215.343l31.945-23.178l240.52,174.506c1.786,1.296,3.888,1.944,5.99,1.944c2.102,0,4.203-0.648,5.99-1.944l128.819-93.463
		l31.945,23.178L311.85,417.372z"/>
	<path style="fill:#3B404F;" d="M283.094,226.794l-127.273-92.342c-4.559-3.308-10.936-2.294-14.245,2.266
		c-3.308,4.559-2.294,10.937,2.266,14.245l127.273,92.342c1.809,1.313,3.904,1.944,5.981,1.944c3.157,0,6.268-1.461,8.264-4.21
		C288.668,236.48,287.654,230.103,283.094,226.794z"/>
	<path style="fill:#3B404F;" d="M318.454,265.05c3.309-4.559,2.294-10.937-2.265-14.244l-4.562-3.311
		c-4.558-3.307-10.937-2.294-14.244,2.265c-3.309,4.559-2.294,10.937,2.265,14.244l4.562,3.311c1.809,1.313,3.904,1.945,5.981,1.945
		C313.346,269.26,316.458,267.8,318.454,265.05z"/>
	<path style="fill:#3B404F;" d="M184.497,110.31l160.366,116.353c1.809,1.313,3.904,1.944,5.981,1.944
		c3.157,0,6.268-1.461,8.264-4.21c3.308-4.559,2.294-10.937-2.266-14.245L196.476,93.799c-4.56-3.308-10.938-2.295-14.245,2.266
		C178.923,100.624,179.938,107.001,184.497,110.31z"/>
</g>
</svg>